<mxfile host="app.diagrams.net" modified="2024-04-05T11:16:15.387Z" agent="Mozilla/5.0 (X11; Linux x86_64; rv:124.0) Gecko/20100101 Firefox/124.0" etag="gBFT3eJ6a02YTZZe-uuJ" version="24.2.2" type="github">
  <diagram name="Page-1" id="J2bN3BYO9xf3R3a1EGYb">
    <mxGraphModel dx="1636" dy="473" grid="0" gridSize="10" guides="1" tooltips="1" connect="1" arrows="1" fold="1" page="0" pageScale="1" pageWidth="850" pageHeight="1100" math="0" shadow="0">
      <root>
        <mxCell id="0" />
        <mxCell id="1" parent="0" />
        <mxCell id="eAJIiWixB_xyd84iNZAI-1" value="&lt;font style=&quot;font-size: 16px;&quot;&gt;Pianta&lt;/font&gt;" style="rounded=0;whiteSpace=wrap;html=1;" vertex="1" parent="1">
          <mxGeometry x="-452" y="62" width="120" height="60" as="geometry" />
        </mxCell>
        <mxCell id="eAJIiWixB_xyd84iNZAI-4" value="&lt;font style=&quot;font-size: 16px;&quot;&gt;Cliente&lt;/font&gt;" style="rounded=0;whiteSpace=wrap;html=1;" vertex="1" parent="1">
          <mxGeometry x="-725" y="62.5" width="120" height="60" as="geometry" />
        </mxCell>
        <mxCell id="eAJIiWixB_xyd84iNZAI-8" value="&lt;font style=&quot;font-size: 15px;&quot;&gt;Seminatore&lt;/font&gt;" style="rounded=0;whiteSpace=wrap;html=1;" vertex="1" parent="1">
          <mxGeometry x="-163" y="62" width="120" height="60" as="geometry" />
        </mxCell>
        <mxCell id="eAJIiWixB_xyd84iNZAI-10" value="" style="endArrow=classic;html=1;rounded=0;fontSize=12;startSize=8;endSize=8;curved=1;" edge="1" parent="1">
          <mxGeometry width="50" height="50" relative="1" as="geometry">
            <mxPoint x="-604" y="95" as="sourcePoint" />
            <mxPoint x="-459" y="93" as="targetPoint" />
            <Array as="points" />
          </mxGeometry>
        </mxCell>
        <mxCell id="eAJIiWixB_xyd84iNZAI-11" value="&lt;font style=&quot;font-size: 17px;&quot;&gt;Rosmarino&lt;/font&gt;" style="rounded=0;whiteSpace=wrap;html=1;" vertex="1" parent="1">
          <mxGeometry x="-579" y="182" width="120" height="60" as="geometry" />
        </mxCell>
        <mxCell id="eAJIiWixB_xyd84iNZAI-12" value="&lt;font style=&quot;font-size: 17px;&quot;&gt;Aloe&lt;/font&gt;" style="rounded=0;whiteSpace=wrap;html=1;" vertex="1" parent="1">
          <mxGeometry x="-341" y="182" width="120" height="60" as="geometry" />
        </mxCell>
      </root>
    </mxGraphModel>
  </diagram>
</mxfile>
